<svg width="1600" height="900" viewBox="0 0 1600 900" fill="none" xmlns="http://www.w3.org/2000/svg">
  <defs>
    <radialGradient id="node" cx="0" cy="0" r="1" gradientUnits="userSpaceOnUse">
      <stop stop-color="#FFE2AD"/>
      <stop offset=".36" stop-color="#D5882A"/>
      <stop offset="1" stop-color="#47301D"/>
    </radialGradient>
    <linearGradient id="bond" x1="0" y1="0" x2="1" y2="1">
      <stop stop-color="#B9C0C2" stop-opacity=".18"/>
      <stop offset=".5" stop-color="#E0A65B" stop-opacity=".55"/>
      <stop offset="1" stop-color="#9EA5A6" stop-opacity=".15"/>
    </linearGradient>
    <filter id="blurGlow" x="-100%" y="-100%" width="300%" height="300%">
      <feGaussianBlur stdDeviation="8"/>
    </filter>
  </defs>
  <g opacity=".78" stroke="url(#bond)" stroke-width="3">
    <path d="M55 123L172 72L281 139L279 267L168 328L53 263L55 123Z"/>
    <path d="M281 139L392 76L508 143L504 273L391 334L279 267"/>
    <path d="M504 273L620 210L735 277L731 408L618 471L502 405L504 273Z"/>
    <path d="M731 408L848 345L964 411L961 541L845 606L730 539L731 408Z"/>
    <path d="M964 411L1080 348L1195 415L1193 544L1077 608L961 541"/>
    <path d="M1195 415L1312 352L1428 419L1423 548L1309 613L1193 544"/>
    <path d="M1080 348L1082 219L1197 154L1313 221L1312 352"/>
    <path d="M392 76L394 -28"/>
    <path d="M618 471L620 601L735 668L845 606"/>
    <path d="M1309 613L1311 742L1424 808"/>
    <path d="M168 328L169 456L281 520L394 457L391 334"/>
    <path d="M394 457L508 521L620 471"/>
  </g>
  <g>
    <circle cx="55" cy="123" r="10" fill="url(#node)"/>
    <circle cx="172" cy="72" r="8" fill="url(#node)"/>
    <circle cx="281" cy="139" r="12" fill="url(#node)"/>
    <circle cx="279" cy="267" r="8" fill="url(#node)"/>
    <circle cx="168" cy="328" r="10" fill="url(#node)"/>
    <circle cx="392" cy="76" r="10" fill="url(#node)"/>
    <circle cx="508" cy="143" r="7" fill="url(#node)"/>
    <circle cx="504" cy="273" r="11" fill="url(#node)"/>
    <circle cx="391" cy="334" r="7" fill="url(#node)"/>
    <circle cx="620" cy="210" r="10" fill="url(#node)"/>
    <circle cx="735" cy="277" r="9" fill="url(#node)"/>
    <circle cx="731" cy="408" r="11" fill="url(#node)"/>
    <circle cx="618" cy="471" r="8" fill="url(#node)"/>
    <circle cx="848" cy="345" r="8" fill="url(#node)"/>
    <circle cx="964" cy="411" r="12" fill="url(#node)"/>
    <circle cx="961" cy="541" r="8" fill="url(#node)"/>
    <circle cx="845" cy="606" r="10" fill="url(#node)"/>
    <circle cx="1080" cy="348" r="11" fill="url(#node)"/>
    <circle cx="1195" cy="415" r="8" fill="url(#node)"/>
    <circle cx="1193" cy="544" r="11" fill="url(#node)"/>
    <circle cx="1077" cy="608" r="9" fill="url(#node)"/>
    <circle cx="1312" cy="352" r="12" fill="url(#node)"/>
    <circle cx="1428" cy="419" r="9" fill="url(#node)"/>
    <circle cx="1423" cy="548" r="10" fill="url(#node)"/>
    <circle cx="1309" cy="613" r="8" fill="url(#node)"/>
    <circle cx="1082" cy="219" r="9" fill="url(#node)"/>
    <circle cx="1197" cy="154" r="11" fill="url(#node)"/>
    <circle cx="1313" cy="221" r="8" fill="url(#node)"/>
  </g>
  <g opacity=".35" fill="#D78C2F" filter="url(#blurGlow)">
    <circle cx="172" cy="72" r="25"/>
    <circle cx="731" cy="408" r="34"/>
    <circle cx="1197" cy="154" r="30"/>
    <circle cx="1423" cy="548" r="28"/>
  </g>
</svg>
